<svg xmlns="http://www.w3.org/2000/svg" version="1.1" xmlns:xlink="http://www.w3.org/1999/xlink" xmlns:svgjs="http://svgjs.dev/svgjs" width="1500" height="939" viewBox="0 0 1500 939"><g transform="matrix(1,0,0,1,-0.9090909090909918,-1.5145161290323017)"><svg viewBox="0 0 396 248" data-background-color="#f3fff5" preserveAspectRatio="xMidYMid meet" height="939" width="1500" xmlns="http://www.w3.org/2000/svg" xmlns:xlink="http://www.w3.org/1999/xlink"><g id="tight-bounds" transform="matrix(1,0,0,1,0.2400000000000091,0.4000000000000057)"><svg viewBox="0 0 395.52 247.2" height="247.2" width="395.52"><g><svg></svg></g><g><svg viewBox="0 0 395.52 247.2" height="247.2" width="395.52"><g transform="matrix(1,0,0,1,75.54432,105.99900790504451)"><svg viewBox="0 0 244.43135999999998 35.20198418991098" height="35.20198418991098" width="244.43135999999998"><g><svg viewBox="0 0 244.43135999999998 35.20198418991098" height="35.20198418991098" width="244.43135999999998"><g><svg viewBox="0 0 244.43135999999998 35.20198418991098" height="35.20198418991098" width="244.43135999999998"><g><svg viewBox="0 0 244.43135999999998 35.20198418991098" height="35.20198418991098" width="244.43135999999998"><g id="textblocktransform"><svg viewBox="0 0 244.43135999999998 35.20198418991098" height="35.20198418991098" width="244.43135999999998" id="textblock"><g><svg viewBox="0 0 244.43135999999998 35.20198418991098" height="35.20198418991098" width="244.43135999999998"><g transform="matrix(1,0,0,1,0,0)"><svg width="244.43135999999998" viewBox="6.5 -35.7 252.73000000000002 36.400000000000006" height="35.20198418991098" data-palette-color="#f3fff5"><path d="M6.5 0L6.5-35 9.9-35 9.9-1Q10.85-1 12.9-1.3L12.9-1.3 21.2-2.55 21.2 0 6.5 0ZM29 0L25.35 0 38.8-35 41.9-35 55.35 0 51.7 0 45.5-16.4 34.15-16.4 29 0ZM39.45-32.4L39.15-32.4 34.5-17.6 45.05-17.6 39.45-32.4ZM71.55 0L63.45 0 63.45-35 70.39-35Q75.8-35 78.8-32.75 81.8-30.5 81.8-26.5L81.8-26.5Q81.8-23.55 80.05-21.48 78.3-19.4 75.14-18.65L75.14-18.65 75.14-18.35Q79.44-17.8 81.87-15.38 84.3-12.95 84.3-9.25L84.3-9.25Q84.3-4.9 80.94-2.45 77.59 0 71.55 0L71.55 0ZM70.44-33.8L70.44-33.8 66.84-33.8 66.84-18.8 70.39-18.8Q78.3-18.8 78.3-26.3L78.3-26.3Q78.3-33.8 70.44-33.8ZM71.55-17.6L71.55-17.6 66.84-17.6 66.84-1.2 71.55-1.2Q80.69-1.2 80.69-9.4L80.69-9.4Q80.69-17.6 71.55-17.6ZM97.69 0L94.29 0 94.29-35 97.69-35 97.69 0ZM132.29 0L124.19 0 124.19-35 131.14-35Q136.54-35 139.54-32.75 142.54-30.5 142.54-26.5L142.54-26.5Q142.54-23.55 140.79-21.48 139.04-19.4 135.89-18.65L135.89-18.65 135.89-18.35Q140.19-17.8 142.61-15.38 145.04-12.95 145.04-9.25L145.04-9.25Q145.04-4.9 141.69-2.45 138.34 0 132.29 0L132.29 0ZM131.19-33.8L131.19-33.8 127.59-33.8 127.59-18.8 131.14-18.8Q139.04-18.8 139.04-26.3L139.04-26.3Q139.04-33.8 131.19-33.8ZM132.29-17.6L132.29-17.6 127.59-17.6 127.59-1.2 132.29-1.2Q141.44-1.2 141.44-9.4L141.44-9.4Q141.44-17.6 132.29-17.6ZM153.49 0L149.84 0 163.29-35 166.39-35 179.84 0 176.19 0 169.99-16.4 158.64-16.4 153.49 0ZM163.94-32.4L163.64-32.4 158.99-17.6 169.54-17.6 163.94-32.4ZM190.58 0L187.18 0 188.43-35.7 189.03-35.7 214.18-5.3 214.48-5.3 213.38-35 216.78-35 215.53 0.7 214.93 0.7 189.78-29.7 189.48-29.7 190.58 0ZM240.03 0L229.03 0 229.03-35 240.03-35Q245.83-35 250.13-32.8 254.43-30.6 256.83-26.68 259.23-22.75 259.23-17.5L259.23-17.5Q259.23-12.25 256.83-8.33 254.43-4.4 250.13-2.2 245.83 0 240.03 0L240.03 0ZM240.03-33.8L240.03-33.8 232.43-33.8 232.43-1.2 240.03-1.2Q247.28-1.2 251.36-5.5 255.43-9.8 255.43-17.5L255.43-17.5Q255.43-25.2 251.36-29.5 247.28-33.8 240.03-33.8Z" opacity="1" transform="matrix(1,0,0,1,0,0)" fill="#f3fff5" class="wordmark-text-0" data-fill-palette-color="primary" id="text-0"></path></svg></g></svg></g></svg></g></svg></g></svg></g></svg></g></svg></g><path d="M179.846 99.999L179.846 36.804 6.253 36.804 6.253 210.396 179.846 210.396 179.846 147.201 176.671 147.201 176.671 207.222 9.428 207.222 9.428 39.978 176.671 39.978 176.671 99.999Z" fill="#f3fff5" stroke="transparent" data-fill-palette-color="tertiary"></path></svg></g><defs></defs></svg><rect width="395.52" height="247.2" fill="none" stroke="none" visibility="hidden"></rect></g></svg></g></svg>