<?xml version="1.0" encoding="utf-8"?>
<!-- Generator: Adobe Illustrator 24.3.0, SVG Export Plug-In . SVG Version: 6.00 Build 0)  -->
<svg version="1.0" id="Layer_1" xmlns="http://www.w3.org/2000/svg" xmlns:xlink="http://www.w3.org/1999/xlink" x="0px" y="0px"
	 viewBox="0 0 1047.99 822.87" style="enable-background:new 0 0 1047.99 822.87;" xml:space="preserve">
<style type="text/css">
	.st0{fill:#f3fff5;}
	.st1{fill:none;stroke:#f3fff5;stroke-width:16.86;stroke-linecap:round;stroke-linejoin:round;}
</style>
<path class="st0" d="M768.65,143.22c-16.56-15.28-83.48-63.86-232.54-64.52c0,0-175.78-10.6-261.47,68
	c-47.7,47.71-64.48,117.52-66.25,204.07s-4.06,248.75,152.29,292.73h0.15l-0.1,67.11c0,0-1,27.17,16.89,32.71
	c21.64,6.72,34.34-13.93,55-36.19c11.34-12.22,27-30.17,38.8-43.89c106.93,9,189.17-11.57,198.51-14.61
	c21.59-7,143.76-22.66,163.63-184.84C854.07,296.62,823.64,190.88,768.65,143.22z M786.77,451.8
	C770,587.22,670.91,595.73,652.64,601.59c-7.77,2.5-80,20.47-170.83,14.54c0,0-67.68,81.65-88.82,102.88c-3.3,3.32-7.18,4.66-9.77,4
	c-3.64-0.89-4.64-5.2-4.6-11.5c0.06-9,0.58-111.52,0.58-111.52s-0.08,0,0,0c-132.26-36.72-124.55-174.77-123.05-247.06
	s15.08-131.51,55.42-171.34c72.48-65.65,221.79-55.84,221.79-55.84c126.09,0.55,186.51,38.52,200.52,51.24
	c46.52,39.83,70.22,135.14,52.89,274.77V451.8z"/>
<path class="st1" d="M597.47,346.99c-1.64-33.06-18.43-50.42-50.38-52.09"/>
<path class="st1" d="M640.72,361.49c0.67-30.8-8.46-56.53-27.37-77.2c-19-20.74-45.3-32.16-79.05-34.63"/>
<path class="st1" d="M685,378.81c-0.41-53.45-16.38-95.54-47.91-126.28s-70.75-46.27-117.65-46.6"/>
<path class="st0" d="M548.76,459.9c0,0,11.85,1,18.23-6.86l12.44-15.65c6-7.76,20.48-12.71,34.66-4.81
	c10.63,6.06,20.94,12.65,30.91,19.74c9.41,6.92,28.68,23,28.74,23c9.18,7.75,11.3,19.13,5.05,31.13c0,0.07-0.05,0.19-0.05,0.25
	c-6.88,11.93-15.62,22.69-25.89,31.88c-0.12,0.06-0.12,0.12-0.23,0.18c-8.92,7.45-17.68,11.69-26.29,12.71
	c-1.27,0.22-2.56,0.3-3.84,0.24c-3.8,0.04-7.57-0.54-11.18-1.72l-0.28-0.41c-13.26-3.74-35.4-13.1-72.27-33.44
	c-21.34-11.63-41.65-25.05-60.72-40.11c-9.56-7.54-18.68-15.63-27.31-24.22l-0.92-0.92l-0.92-0.92l0,0l-0.92-0.92
	c-0.31-0.3-0.61-0.61-0.92-0.92c-8.59-8.63-16.68-17.75-24.22-27.31c-15.06-19.07-28.48-39.38-40.11-60.71
	c-20.34-36.88-29.7-59-33.44-72.28l-0.41-0.28c-1.17-3.61-1.75-7.39-1.71-11.18c-0.07-1.28,0.01-2.57,0.23-3.84
	c1.07-8.59,5.32-17.36,12.73-26.31c0.06-0.11,0.12-0.11,0.18-0.23c9.18-10.27,19.94-19,31.88-25.88c0.06,0,0.18-0.06,0.25-0.06
	c12-6.25,23.38-4.13,31.12,5c0.06,0.06,16.11,19.33,23,28.74c7.09,9.98,13.68,20.3,19.74,30.94c7.9,14.17,2.95,28.68-4.81,34.66
	l-15.65,12.44c-7.9,6.38-6.86,18.23-6.86,18.23S462.15,437.79,548.76,459.9z"/>
</svg>
